<?xml version="1.0" encoding="UTF-8"?><svg id="Layer_1" xmlns="http://www.w3.org/2000/svg" viewBox="0 0 286.84 124.06"><defs><style>.cls-1{fill:#1293ce;}.cls-2{fill:#ff800f;}.cls-3{stroke-width:2px;}.cls-3,.cls-4{fill:none;stroke:#fff;stroke-miterlimit:10;}.cls-5{fill:#010a35;}.cls-4{stroke-width:.8px;}</style></defs><g><path d="M128.8,89.64c0-3.56,2.92-6.44,6.48-6.44,2.03,0,3.84,.94,5.03,2.42l-1.49,1.14c-.85-1-2.14-1.65-3.54-1.65-2.51,0-4.59,2.03-4.59,4.54s2.08,4.54,4.59,4.54c1.51,0,2.85-.73,3.68-1.87l1.51,1.16c-1.17,1.58-3.08,2.62-5.19,2.62-3.56,0-6.48-2.88-6.48-6.44Z"/><path d="M153.01,83.41h6.83v1.74h-4.93v3.47h4.77v1.74h-4.77v3.75h5.09v1.74h-6.99v-12.45Z"/><path d="M173.16,83.41h2.12l6.41,9.61v-9.61h1.9v12.45h-2.1l-6.42-9.61v9.61h-1.9v-12.45Z"/><path d="M199.64,85.31h-3.08v-1.9h8.06v1.9h-3.08v10.55h-1.9v-10.55Z"/><path d="M217.6,83.41h6.83v1.74h-4.93v3.47h4.77v1.74h-4.77v3.75h5.09v1.74h-6.99v-12.45Z"/><path d="M237.75,83.41h3.33c2.49,0,4.38,1.3,4.38,3.77,0,1.71-.89,2.85-2.24,3.4l3.56,5.28h-2.35l-3.15-4.89h-1.64v4.89h-1.89v-12.45Zm3.33,5.66c1.46,0,2.44-.59,2.44-1.89s-.98-1.87-2.44-1.87h-1.44v3.75h1.44Z"/></g><path class="cls-2" d="M103.77,89.73h-11.44l-21.58-34.88h15.57c3.51,0,6.37-2.86,6.37-6.37s-2.86-6.36-6.37-6.36h-23.5l-6.03-9.68h29.53c4.27,0,8.31,1.67,11.34,4.7,3.04,3.03,4.71,7.06,4.71,11.34,0,8.28-6.31,15.12-14.37,15.96l15.77,25.29Z"/><path d="M105.34,92.36c-8.6,9.53-20.89,15-33.72,15-25.02,0-45.38-20.33-45.38-45.33S46.6,16.7,71.62,16.7c13.36,0,25.98,5.85,34.64,16.06l.23,.27h13.55l-.74-1.16c-10.43-16.42-28.25-26.22-47.67-26.22C40.5,5.65,15.18,30.94,15.18,62.03s25.32,56.38,56.44,56.38c18.9,0,36.46-9.39,46.97-25.13l.78-1.17h-13.81l-.22,.25Z"/><g><polygon class="cls-3" points="83.39 89.72 47.83 32.43 5.32 100.16 16.76 100.16 47.73 51.12 58.93 68.97 45.58 68.97 39.12 79.53 65.56 79.53 71.96 89.72 83.39 89.72"/><polygon class="cls-5" points="83.39 89.72 47.83 32.43 5.32 100.16 16.76 100.16 47.73 51.12 58.93 68.97 45.58 68.97 39.12 79.53 65.56 79.53 71.96 89.72 83.39 89.72"/></g><path class="cls-5" d="M104.86,57.41c0-10.78,8.79-19.41,19.52-19.41,6.43,0,12.12,3.06,15.71,7.83l-6.06,4.67c-2.2-2.95-5.68-4.88-9.65-4.88-6.54,0-11.9,5.26-11.9,11.8s5.36,11.74,11.9,11.74c4.24,0,7.94-2.2,10.08-5.47l6.06,4.67c-3.54,5.09-9.44,8.42-16.14,8.42-10.73,0-19.52-8.63-19.52-19.36Z"/><path class="cls-5" d="M140.78,62.56c0-7.83,6.6-14.16,14.48-14.16s14.48,6.33,14.48,14.16-6.65,14.21-14.48,14.21-14.48-6.33-14.48-14.21Zm14.48,7.08c3.91,0,7.08-3.16,7.08-7.08s-3.16-7.03-7.08-7.03-7.08,3.16-7.08,7.03,3.16,7.08,7.08,7.08Z"/><path class="cls-5" d="M170.8,62.56c0-7.83,6.6-14.16,14.48-14.16s14.48,6.33,14.48,14.16-6.65,14.21-14.48,14.21-14.48-6.33-14.48-14.21Zm14.48,7.08c3.91,0,7.08-3.16,7.08-7.08s-3.16-7.03-7.08-7.03-7.08,3.16-7.08,7.03,3.16,7.08,7.08,7.08Z"/><path class="cls-5" d="M201.9,36.23h7.19v39.95h-7.19V36.23Z"/><path class="cls-5" d="M216.16,37.14c2.15,0,3.91,1.77,3.91,3.91s-1.77,3.91-3.91,3.91-3.86-1.77-3.86-3.91,1.72-3.91,3.86-3.91Zm-3.54,11.85h7.13v27.19h-7.13v-27.19Z"/><path class="cls-5" d="M223.29,48.99h7.19v2.31c1.82-1.82,4.29-2.9,7.35-2.9,8.42,0,12.44,6.11,12.44,13.73v14.05h-7.13v-14.05c0-3.32-2.04-6.6-6.27-6.6-4.5,0-6.38,3.65-6.38,7.61v13.03h-7.19v-27.19Z"/><path class="cls-5" d="M253.69,82.02l6.59-3.22c1.29,1.93,3.81,2.95,7.03,2.95,4.4,0,7.08-2.57,7.08-6.65v-1.34c-2.25,1.88-5.2,3-8.47,3-7.67,0-13.51-6.33-13.51-14.21s5.85-14.16,13.51-14.16c3.27,0,6.22,1.13,8.47,3v-2.41h7.13v26.12c0,8.69-6.01,13.84-14.21,13.84-5.79,0-11.26-2.41-13.62-6.92Zm13.19-12.39c3.91,0,7.08-3.16,7.08-7.08s-3.16-7.03-7.08-7.03-7.08,3.16-7.08,7.03,3.16,7.08,7.08,7.08Z"/><g><path class="cls-4" d="M154.94,57.96s6.53-6.84,17.03-2.31c5.97,2.55,9.15,5.09,17.35,1.19,0,0-6.68,7.48-17.19,2.79s-11.22-4.14-17.19-1.67Z"/><path class="cls-1" d="M154.94,57.96s6.53-6.84,17.03-2.31c5.97,2.55,9.15,5.09,17.35,1.19,0,0-6.68,7.48-17.19,2.79s-11.22-4.14-17.19-1.67Z"/></g><g><path class="cls-4" d="M151.45,62.66s6.53-6.84,17.03-2.31c5.97,2.55,9.15,5.09,17.35,1.19,0,0-6.68,7.48-17.19,2.79s-11.22-4.14-17.19-1.67Z"/><path class="cls-2" d="M151.45,62.66s6.53-6.84,17.03-2.31c5.97,2.55,9.15,5.09,17.35,1.19,0,0-6.68,7.48-17.19,2.79s-11.22-4.14-17.19-1.67Z"/></g><g><path class="cls-4" d="M148.34,67.26s6.53-6.84,17.03-2.31c5.97,2.55,9.15,5.09,17.35,1.19,0,0-6.68,7.48-17.19,2.79s-11.22-4.14-17.19-1.67Z"/><path class="cls-1" d="M148.34,67.26s6.53-6.84,17.03-2.31c5.97,2.55,9.15,5.09,17.35,1.19,0,0-6.68,7.48-17.19,2.79s-11.22-4.14-17.19-1.67Z"/></g></svg>